<?xml version="1.0" ?><svg clip-rule="evenodd" fill-rule="evenodd" image-rendering="optimizeQuality" shape-rendering="geometricPrecision" text-rendering="geometricPrecision" viewBox="0 0 500 500" xmlns="http://www.w3.org/2000/svg"><defs><linearGradient gradientUnits="userSpaceOnUse" id="a" x1="249.997" x2="249.997" y1="356.378" y2="224.38"><stop offset="0" stop-color="#008BFF"/><stop offset="1" stop-color="#0af"/></linearGradient><linearGradient gradientUnits="userSpaceOnUse" id="b" x1="344.996" x2="154.998" y1="98" y2="98"><stop offset="0" stop-color="#008BFF"/><stop offset="1" stop-color="#0af"/></linearGradient></defs><g><path d="M250 365c52 0 95-42 95-95v-55h-190v55c0 53 43 95 95 95z" fill="url(#a)" stroke="#434242" stroke-width="10"/><path d="M156 165h188c5 0 10 4 11 10h40c5 0 10 4 10 10v20c0 6-5 10-10 10h-5v48c0 68-50 125-115 137v40h75c8 0 15 7 15 15v15h-230v-15c0-8 7-15 15-15h75v-40c-65-12-115-69-115-137v-48h-5c-6 0-10-4-10-10v-20c0-6 4-10 10-10h40c1-6 6-10 11-10zm214 50h-15c-1 6-6 10-11 10h-188c-5 0-10-4-11-10h-15v50c0 66 54 120 120 120s120-54 120-120v-50z" fill="#434242"/><path d="M250 25c52 0 95 43 95 95v51h-190v-31h85v-15h-85v-5c0-3 0-7 1-10h84v-15h-82l6-15h76v-15h-67c4-5 8-10 13-15h54v-15h-32c12-6 27-10 42-10z" fill="url(#b)" stroke="#434242" stroke-linejoin="round" stroke-width="5"/></g></svg>